{
  "accessors": [
    {
      "bufferView": 0,
      "componentType": 5126,
      "count": 60,
      "max": [
        17.353271484375,
        -16.797515869140625,
        34.853271484375
      ],
      "min": [
        -17.353271484375,
        -17.5,
        0.14672759175300598
      ],
      "type": "VEC3"
    },
    {
      "bufferView": 0,
      "byteOffset": 12,
      "componentType": 5126,
      "count": 60,
      "type": "VEC3"
    },
    {
      "bufferView": 1,
      "componentType": 5125,
      "count": 246,
      "type": "SCALAR"
    },
    {
      "bufferView": 2,
      "componentType": 5126,
      "count": 60,
      "max": [
        17.353271484375,
        -16.797515869140625,
        34.853271484375
      ],
      "min": [
        -17.353271484375,
        -17.5,
        0.14672759175300598
      ],
      "type": "VEC3"
    },
    {
      "bufferView": 2,
      "byteOffset": 12,
      "componentType": 5126,
      "count": 60,
      "type": "VEC3"
    },
    {
      "bufferView": 3,
      "componentType": 5125,
      "count": 246,
      "type": "SCALAR"
    },
    {
      "bufferView": 4,
      "componentType": 5126,
      "count": 60,
      "max": [
        17.353271484375,
        -16.797515869140625,
        34.853271484375
      ],
      "min": [
        -17.353271484375,
        -17.5,
        0.14672759175300598
      ],
      "type": "VEC3"
    },
    {
      "bufferView": 4,
      "byteOffset": 12,
      "componentType": 5126,
      "count": 60,
      "type": "VEC3"
    },
    {
      "bufferView": 5,
      "componentType": 5125,
      "count": 246,
      "type": "SCALAR"
    },
    {
      "bufferView": 6,
      "componentType": 5126,
      "count": 60,
      "max": [
        17.353271484375,
        -16.797515869140625,
        34.853271484375
      ],
      "min": [
        -17.353271484375,
        -17.5,
        0.14672759175300598
      ],
      "type": "VEC3"
    },
    {
      "bufferView": 6,
      "byteOffset": 12,
      "componentType": 5126,
      "count": 60,
      "type": "VEC3"
    },
    {
      "bufferView": 7,
      "componentType": 5125,
      "count": 246,
      "type": "SCALAR"
    },
    {
      "bufferView": 8,
      "componentType": 5126,
      "count": 52,
      "max": [
        17.3301944732666,
        17.3301944732666,
        35.0
      ],
      "min": [
        -17.3301944732666,
        -17.3301944732666,
        34.37728500366211
      ],
      "type": "VEC3"
    },
    {
      "bufferView": 8,
      "byteOffset": 12,
      "componentType": 5126,
      "count": 52,
      "type": "VEC3"
    },
    {
      "bufferView": 9,
      "componentType": 5125,
      "count": 210,
      "type": "SCALAR"
    },
    {
      "bufferView": 10,
      "componentType": 5126,
      "count": 84,
      "max": [
        17.5,
        17.5,
        1.2524566650390625
      ],
      "min": [
        -17.5,
        -17.5,
        0.0
      ],
      "type": "VEC3"
    },
    {
      "bufferView": 10,
      "byteOffset": 12,
      "componentType": 5126,
      "count": 84,
      "type": "VEC3"
    },
    {
      "bufferView": 11,
      "componentType": 5125,
      "count": 402,
      "type": "SCALAR"
    },
    {
      "bufferView": 12,
      "componentType": 5126,
      "count": 9,
      "max": [
        17.5,
        17.5,
        0.0
      ],
      "min": [
        -17.5,
        -17.5,
        0.0
      ],
      "type": "VEC3"
    },
    {
      "bufferView": 12,
      "byteOffset": 12,
      "componentType": 5126,
      "count": 9,
      "type": "VEC3"
    },
    {
      "bufferView": 13,
      "componentType": 5125,
      "count": 24,
      "type": "SCALAR"
    }
  ],
  "asset": {
    "version": "2.0"
  },
  "bufferViews": [
    {
      "buffer": 0,
      "byteLength": 1920,
      "byteStride": 32,
      "target": 34962
    },
    {
      "buffer": 0,
      "byteLength": 984,
      "byteOffset": 1920,
      "target": 34963
    },
    {
      "buffer": 0,
      "byteLength": 1920,
      "byteOffset": 2904,
      "byteStride": 32,
      "target": 34962
    },
    {
      "buffer": 0,
      "byteLength": 984,
      "byteOffset": 4824,
      "target": 34963
    },
    {
      "buffer": 0,
      "byteLength": 1920,
      "byteOffset": 5808,
      "byteStride": 32,
      "target": 34962
    },
    {
      "buffer": 0,
      "byteLength": 984,
      "byteOffset": 7728,
      "target": 34963
    },
    {
      "buffer": 0,
      "byteLength": 1920,
      "byteOffset": 8712,
      "byteStride": 32,
      "target": 34962
    },
    {
      "buffer": 0,
      "byteLength": 984,
      "byteOffset": 10632,
      "target": 34963
    },
    {
      "buffer": 0,
      "byteLength": 1664,
      "byteOffset": 11616,
      "byteStride": 32,
      "target": 34962
    },
    {
      "buffer": 0,
      "byteLength": 840,
      "byteOffset": 13280,
      "target": 34963
    },
    {
      "buffer": 0,
      "byteLength": 2688,
      "byteOffset": 14120,
      "byteStride": 32,
      "target": 34962
    },
    {
      "buffer": 0,
      "byteLength": 1608,
      "byteOffset": 16808,
      "target": 34963
    },
    {
      "buffer": 0,
      "byteLength": 288,
      "byteOffset": 18416,
      "byteStride": 32,
      "target": 34962
    },
    {
      "buffer": 0,
      "byteLength": 96,
      "byteOffset": 18704,
      "target": 34963
    }
  ],
  "buffers": [
    {
      "byteLength": 18800,
      "uri": "Cube 00.bin"
    }
  ],
  "materials": [
    {
      "name": "fallback Material",
      "pbrMetallicRoughness": {
        "baseColorFactor": [
          0.0,
          0.0,
          0.0,
          1.0
        ]
      }
    },
    {
      "name": "fallback Material",
      "pbrMetallicRoughness": {
        "baseColorFactor": [
          0.0,
          0.0,
          0.0,
          1.0
        ]
      }
    },
    {
      "name": "fallback Material",
      "pbrMetallicRoughness": {
        "baseColorFactor": [
          0.0,
          0.0,
          0.0,
          1.0
        ]
      }
    },
    {
      "name": "fallback Material",
      "pbrMetallicRoughness": {
        "baseColorFactor": [
          0.0,
          0.0,
          0.0,
          1.0
        ]
      }
    },
    {
      "name": "fallback Material",
      "pbrMetallicRoughness": {
        "baseColorFactor": [
          0.0,
          0.0,
          0.0,
          1.0
        ]
      }
    },
    {
      "name": "fallback Material",
      "pbrMetallicRoughness": {
        "baseColorFactor": [
          0.0,
          0.0,
          0.0,
          1.0
        ]
      }
    },
    {
      "name": "fallback Material",
      "pbrMetallicRoughness": {
        "baseColorFactor": [
          0.0,
          0.0,
          0.0,
          1.0
        ]
      }
    }
  ],
  "meshes": [
    {
      "name": "ChamferBox001",
      "primitives": [
        {
          "attributes": {
            "NORMAL": 1,
            "POSITION": 0
          },
          "indices": 2,
          "material": 0,
          "mode": 4
        }
      ]
    },
    {
      "name": "ChamferBox002",
      "primitives": [
        {
          "attributes": {
            "NORMAL": 4,
            "POSITION": 3
          },
          "indices": 5,
          "material": 1,
          "mode": 4
        }
      ]
    },
    {
      "name": "ChamferBox003",
      "primitives": [
        {
          "attributes": {
            "NORMAL": 7,
            "POSITION": 6
          },
          "indices": 8,
          "material": 2,
          "mode": 4
        }
      ]
    },
    {
      "name": "ChamferBox004",
      "primitives": [
        {
          "attributes": {
            "NORMAL": 10,
            "POSITION": 9
          },
          "indices": 11,
          "material": 3,
          "mode": 4
        }
      ]
    },
    {
      "name": "ChamferBox005",
      "primitives": [
        {
          "attributes": {
            "NORMAL": 13,
            "POSITION": 12
          },
          "indices": 14,
          "material": 4,
          "mode": 4
        }
      ]
    },
    {
      "name": "ChamferBox006",
      "primitives": [
        {
          "attributes": {
            "NORMAL": 16,
            "POSITION": 15
          },
          "indices": 17,
          "material": 5,
          "mode": 4
        }
      ]
    },
    {
      "name": "Plane001",
      "primitives": [
        {
          "attributes": {
            "NORMAL": 19,
            "POSITION": 18
          },
          "indices": 20,
          "material": 6,
          "mode": 4
        }
      ]
    }
  ],
  "nodes": [
    {
      "mesh": 0,
      "name": "ChamferBox001"
    },
    {
      "children": [
        0
      ],
      "matrix": [
        0.9396926164627075,
        0.0,
        -0.3420201539993286,
        0.0,
        -0.3420201539993286,
        0.0,
        -0.9396926164627075,
        0.0,
        0.0,
        1.0,
        0.0,
        0.0,
        -9.833257763602887e-08,
        0.4575347900390625,
        8.36919298308203e-08,
        1.0
      ]
    },
    {
      "mesh": 1,
      "name": "ChamferBox002"
    },
    {
      "children": [
        2
      ],
      "matrix": [
        -0.34202009439468384,
        0.0,
        -0.9396926164627075,
        0.0,
        -0.9396926164627075,
        0.0,
        0.34202009439468384,
        0.0,
        0.0,
        1.0,
        0.0,
        0.0,
        -9.833257763602887e-08,
        0.4575347900390625,
        8.36919298308203e-08,
        1.0
      ]
    },
    {
      "mesh": 2,
      "name": "ChamferBox003"
    },
    {
      "children": [
        4
      ],
      "matrix": [
        -0.9396926760673523,
        0.0,
        0.3420200049877167,
        0.0,
        0.3420200049877167,
        0.0,
        0.9396926760673523,
        0.0,
        0.0,
        1.0,
        0.0,
        0.0,
        -9.833257763602887e-08,
        0.4575347900390625,
        8.36919298308203e-08,
        1.0
      ]
    },
    {
      "mesh": 3,
      "name": "ChamferBox004"
    },
    {
      "children": [
        6
      ],
      "matrix": [
        0.3420201539993286,
        0.0,
        0.9396926164627075,
        0.0,
        0.9396926164627075,
        0.0,
        -0.3420201539993286,
        0.0,
        0.0,
        1.0,
        0.0,
        0.0,
        -9.833257763602887e-08,
        0.4575347900390625,
        8.36919298308203e-08,
        1.0
      ]
    },
    {
      "mesh": 4,
      "name": "ChamferBox005"
    },
    {
      "children": [
        8
      ],
      "matrix": [
        0.3420201539993286,
        0.0,
        0.9396926164627075,
        0.0,
        0.9396926164627075,
        0.0,
        -0.3420201539993286,
        0.0,
        0.0,
        1.0,
        0.0,
        0.0,
        -9.833257763602887e-08,
        0.4575347900390625,
        8.36919298308203e-08,
        1.0
      ]
    },
    {
      "mesh": 5,
      "name": "ChamferBox006"
    },
    {
      "children": [
        10
      ],
      "matrix": [
        0.3420201539993286,
        0.0,
        0.9396926164627075,
        0.0,
        0.9396926164627075,
        0.0,
        -0.3420201539993286,
        0.0,
        0.0,
        1.0,
        0.0,
        0.0,
        -9.833257763602887e-08,
        0.4575347900390625,
        8.36919298308203e-08,
        1.0
      ]
    },
    {
      "mesh": 6,
      "name": "Plane001"
    },
    {
      "children": [
        12
      ],
      "matrix": [
        1.1397058963775635,
        0.0,
        -0.4148190915584564,
        0.0,
        -0.4148190915584564,
        0.0,
        -1.1397058963775635,
        0.0,
        0.0,
        1.2128499746322632,
        0.0,
        0.0,
        2.842170943040401e-14,
        -3.026622772216797,
        3.642770707301679e-08,
        1.0
      ]
    }
  ],
  "scenes": [
    {
      "nodes": [
        1,
        3,
        5,
        7,
        9,
        11,
        13
      ]
    }
  ]
}
